:version 1.10
:name ASF
:units
  mass 1
  length 1
  angle deg
:documentation
  ASF file generated by Kaydara
:root
  axis xyz
  order  tx ty tz rx ry rz
  position 0 0 0
  orientation 0 0 0
:bonedata
  begin
    id 1
    name LeftUpLegDummy
    direction 1 -2.30186e-007 -8.31532e-007
    length 2.93387
    axis 0 0 0 xyz
  end
  begin
    id 2
    name LeftUpLeg
    direction -1.82929e-007 -1 -1.48925e-009
    length 17.3336
    axis -3.48766 0.00143442 -0.000521554 xyz
    dof rx ry rz
  end
  begin
    id 3
    name LeftLeg
    direction -1.82929e-007 -1 -5.23717e-011
    length 14.9995
    axis 3.68178 -0.00654042 -0.000282425 xyz
    dof rx ry rz
  end
  begin
    id 4
    name LeftFoot
    direction 8.31532e-007 -4.54534e-011 1
    length 6.74421
    axis 1.87234e-006 4.66016e-005 -5.96866e-006 xyz
    dof rx ry rz
  end
  begin
    id 5
    name LeftToes
    direction 0.00818058 -0.00485161 0.999955
    length 3.85048
    axis 1.06247e-005 4.65869e-005 -5.96999e-006 xyz
    dof rx ry rz
  end
  begin
    id 6
    name SpineDummy
    direction -5.8607e-008 0.943407 -0.331637
    length 5.93572
    axis 0 0 0 xyz
  end
  begin
    id 7
    name Spine
    direction -1.04988e-007 0.999988 0.00495137
    length 10.1015
    axis -0.001389 0.000121417 6.61666e-006 xyz
    dof rx ry rz
  end
  begin
    id 8
    name Spine1
    direction 0 0 0
    length 0
    axis -0.001389 0.00012144 6.56766e-006 xyz
    dof rx ry rz
  end
  begin
    id 9
    name RightShoulderDummy
    direction -0.98348 0.17941 -0.0240696
    length 3.59882
    axis -0.001389 0.00012144 6.56766e-006 xyz
  end
  begin
    id 10
    name RightShoulder
    direction -0.978693 0.204882 0.0135597
    length 2.70001
    axis 0.215806 0.000203631 -0.00679732 xyz
    dof rx ry rz
  end
  begin
    id 11
    name RightArm
    direction -1 3.85509e-006 8.31394e-007
    length 10.2459
    axis -23.2009 -0.134239 -0.964098 xyz
    dof rx ry rz
  end
  begin
    id 12
    name RightForeArm
    direction -1 3.85569e-006 8.3129e-007
    length 8.16799
    axis -9.92322 0.0658061 0.17887 xyz
    dof rx ry rz
  end
  begin
    id 13
    name RightHand
    direction -0.992843 -0.0414604 0.112003
    length 5.28593
    axis -0.00960638 0.00330669 -0.185225 xyz
    dof rx ry rz
  end
  begin
    id 14
    name LeftShoulder1Dummy
    direction 0.983523 0.179172 -0.0240748
    length 3.59866
    axis -0.001389 0.00012144 6.56766e-006 xyz
  end
  begin
    id 15
    name LeftShoulder1
    direction 0.978627 0.205195 0.0135605
    length 2.70019
    axis -0.001389 0.00012144 6.57583e-006 xyz
    dof rx ry rz
  end
  begin
    id 16
    name LeftArm
    direction 1 3.51895e-006 -8.60188e-007
    length 10.2459
    axis -23.1894 0.134785 0.967513 xyz
    dof rx ry rz
  end
  begin
    id 17
    name LeftForeArm
    direction 1 3.51921e-006 -7.32029e-007
    length 8.16799
    axis -9.91835 -0.0656957 -0.177789 xyz
    dof rx ry rz
  end
  begin
    id 18
    name LeftHand
    direction 0.992938 -0.0411636 0.11126
    length 5.32135
    axis -0.00960237 -0.00340661 0.185177 xyz
    dof rx ry rz
  end
  begin
    id 19
    name HEadDummy
    direction 1.01974e-006 0.999861 -0.016675
    length 2.99946
    axis -0.001389 0.00012144 6.56766e-006 xyz
  end
  begin
    id 20
    name HEad
    direction -0.0222689 0.980941 0.193023
    length 5.12695
    axis -0.001389 0.00012144 6.56766e-006 xyz
    dof rx ry rz
  end
  begin
    id 21
    name RightUpLegDummy
    direction -1 2.30186e-007 8.31532e-007
    length 2.93387
    axis 0 0 0 xyz
  end
  begin
    id 22
    name RightUpLeg
    direction -1.82966e-007 -1 1.56832e-007
    length 17.3336
    axis -3.4909 -0.000906625 0.00028951 xyz
    dof rx ry rz
  end
  begin
    id 23
    name RightLeg
    direction -1.82786e-007 -1 -1.80317e-007
    length 14.9995
    axis 3.68513 0.0193739 -0.131021 xyz
    dof rx ry rz
  end
  begin
    id 24
    name RightFoot
    direction 8.31721e-007 -4.63324e-011 1
    length 6.74421
    axis 4.81691e-005 -0.120479 -0.188785 xyz
    dof rx ry rz
  end
  begin
    id 25
    name RightToes
    direction 0.00124746 -0.014064 0.9999
    length 3.85082
    axis 0.000481921 0.542163 -0.142575 xyz
    dof rx ry rz
  end
:hierarchy
  begin
    root LeftUpLegDummy SpineDummy RightUpLegDummy
    LeftUpLegDummy LeftUpLeg
    LeftUpLeg LeftLeg
    LeftLeg LeftFoot
    LeftFoot LeftToes
    SpineDummy Spine
    Spine Spine1
    Spine1 RightShoulderDummy LeftShoulder1Dummy HEadDummy
    RightShoulderDummy RightShoulder
    RightShoulder RightArm
    RightArm RightForeArm
    RightForeArm RightHand
    LeftShoulder1Dummy LeftShoulder1
    LeftShoulder1 LeftArm
    LeftArm LeftForeArm
    LeftForeArm LeftHand
    HEadDummy HEad
    RightUpLegDummy RightUpLeg
    RightUpLeg RightLeg
    RightLeg RightFoot
    RightFoot RightToes
  end

:SAMPLES-PER-SECOND 30
:FULLY-SPECIFIED
:DEGREES
131
root  2.99677 33.9926 -14.1243 2.26603 0.625127 1.80224
LeftUpLeg  -0.716637 11.2121 -1.54265
LeftLeg  12.2977 10.0185 1.50854
LeftFoot  -5.79897 -0.0518742 -1.02417
LeftToes  -10.866 8.556e-007 1.17171e-007
Spine  0.915729 -0.940162 -1.92661
Spine1  1.91114 -1.70995 -3.97323
RightShoulder  -0.009061 5.08927 3.41526
RightArm  -35.3355 -22.0287 77.9711
RightForeArm  27.7532 24.9494 4.69974
RightHand  1.06079 -13.2375 -8.76234
LeftShoulder1  -0.0125844 -0.325218 -4.39223
LeftArm  5.49454 -13.8579 -74.0191
LeftForeArm  130.95 -43.1721 -170.19
LeftHand  1.8944 10.6786 19.6818
HEad  20.5191 -5.14046 -1.62265
RightUpLeg  -13.1456 -11.9844 -3.68178
RightLeg  3.31546 -4.23955 0.0236904
RightFoot  16.7976 0.237626 -1.23173
RightToes  -34.0183 -0.174866 -0.281261
132
root  3.02944 33.9934 -14.185 2.26703 0.901775 1.89755
LeftUpLeg  -0.78236 11.2432 -1.6775
LeftLeg  12.1657 9.72159 1.44146
LeftFoot  -5.67446 -0.0480425 -0.969376
LeftToes  -10.8655 8.556e-007 1.17171e-007
Spine  0.916321 -0.873379 -2.01119
Spine1  1.91624 -1.55185 -4.16208
RightShoulder  -0.009075 5.261 3.27543
RightArm  -35.4247 -22.1632 78.2194
RightForeArm  27.9873 24.8692 4.68238
RightHand  1.0643 -13.2245 -8.78775
LeftShoulder1  -0.0132929 0.312022 -4.02141
LeftArm  5.86827 -17.9704 -75.2923
LeftForeArm  132.239 -41.3683 -170.777
LeftHand  1.79652 10.4262 19.1194
HEad  19.8604 -6.64178 -2.02438
RightUpLeg  -13.1074 -12.0564 -3.85992
RightLeg  3.10106 -4.43762 0.045782
RightFoot  17.0267 0.251493 -1.30238
RightToes  -33.963 -0.174607 -0.281948
133
root  3.06794 33.9941 -14.2517 2.25479 1.16632 1.99632
LeftUpLeg  -0.886514 11.2355 -1.83184
LeftLeg  12.133 9.46931 1.39889
LeftFoot  -5.6057 -0.0455433 -0.93024
LeftToes  -10.802 8.556e-007 1.17171e-007
Spine  0.921209 -0.824666 -2.08099
Spine1  1.92877 -1.43448 -4.31719
RightShoulder  -0.00913973 5.45577 3.10083
RightArm  -35.545 -22.3251 78.464
RightForeArm  28.2315 24.8272 4.67324
RightHand  1.06888 -13.2101 -8.83696
LeftShoulder1  -0.0140326 0.872863 -3.61732
LeftArm  6.41004 -21.9912 -76.6533
LeftForeArm  133.236 -40.1511 -171.153
LeftHand  1.74626 10.3281 18.7615
HEad  18.8088 -7.79843 -2.27998
RightUpLeg  -13.0756 -12.1434 -4.04962
RightLeg  2.90888 -4.59169 0.0633794
RightFoot  17.2918 0.264941 -1.36466
RightToes  -34.0704 -0.174406 -0.282594
134
root  3.1152 33.9944 -14.3211 2.22451 1.37626 2.08713
LeftUpLeg  -1.00617 11.1823 -2.01039
LeftLeg  12.1719 9.33078 1.38503
LeftFoot  -5.59777 -0.045309 -0.913505
LeftToes  -10.5288 8.556e-007 1.17171e-007
Spine  0.936392 -0.788554 -2.13064
Spine1  1.96122 -1.34613 -4.42746
RightShoulder  -0.00924553 5.64102 2.93359
RightArm  -35.5728 -22.4936 78.6437
RightForeArm  28.4287 24.8892 4.68649
RightHand  1.08249 -13.2501 -8.92554
LeftShoulder1  -0.0147767 1.27856 -3.21482
LeftArm  7.53294 -25.3025 -77.7605
LeftForeArm  134.401 -39.5514 -171.331
LeftHand  1.88433 9.99537 20.9171
HEad  16.914 -8.66939 -2.41206
RightUpLeg  -13.0562 -12.2227 -4.2425
RightLeg  2.75591 -4.69173 0.0772301
RightFoot  17.5537 0.276326 -1.41199
RightToes  -34.115 -0.174296 -0.283201
135
root  3.17282 33.9935 -14.3856 2.18207 1.46656 2.19132
LeftUpLeg  -1.11788 11.1942 -2.22037
LeftLeg  12.2561 9.23878 1.3853
LeftFoot  -5.5982 -0.0461486 -0.903617
LeftToes  -10.3116 8.556e-007 1.17171e-007
Spine  0.951956 -0.772936 -2.15938
Spine1  1.99327 -1.30695 -4.4896
RightShoulder  -0.00941151 5.82513 2.74663
RightArm  -35.6198 -22.58 78.7986
RightForeArm  28.6592 24.8709 4.68244
RightHand  1.0909 -13.196 -9.03594
LeftShoulder1  -0.0154984 1.46316 -2.93392
LeftArm  8.14937 -27.642 -78.3468
LeftForeArm  134.057 -39.491 -171.351
LeftHand  2.07731 10.1074 22.7866
HEad  14.7451 -9.1642 -2.62291
RightUpLeg  -13.0627 -12.2888 -4.44666
RightLeg  2.66244 -4.67968 0.0846397
RightFoot  17.7888 0.28213 -1.42504
RightToes  -34.2368 -0.17431 -0.283772
136
root  3.2397 33.9907 -14.4493 2.13166 1.45603 2.27682
LeftUpLeg  -1.22638 11.2171 -2.43388
LeftLeg  12.3687 9.22428 1.40158
LeftFoot  -5.64485 -0.0468173 -0.910165
LeftToes  -10.0603 8.556e-007 1.17171e-007
Spine  0.983856 -0.778693 -2.17104
Spine1  2.0566 -1.31915 -4.51267
RightShoulder  -0.00964478 6.02764 2.60401
RightArm  -35.6507 -22.5722 78.8751
RightForeArm  28.7987 24.8357 4.67481
RightHand  1.09388 -13.2001 -9.08584
LeftShoulder1  -0.0161708 1.43158 -2.7628
LeftArm  7.48779 -29.3312 -78.5812
LeftForeArm  133.457 -39.5476 -171.335
LeftHand  2.20872 10.2776 23.8117
HEad  12.4143 -9.26516 -2.80539
RightUpLeg  -13.0719 -12.3475 -4.63601
RightLeg  2.54305 -4.58313 0.0924198
RightFoot  18.0585 0.285086 -1.41629
RightToes  -34.32 -0.174483 -0.284307
137
root  3.31482 33.9849 -14.5145 2.05439 1.37646 2.39149
LeftUpLeg  -1.32238 11.3266 -2.68253
LeftLeg  12.5176 9.20168 1.42251
LeftFoot  -5.73031 -0.0473774 -0.922416
LeftToes  -9.75846 8.556e-007 1.17171e-007
Spine  0.993919 -0.76828 -2.18826
Spine1  2.07541 -1.30086 -4.54527
RightShoulder  -0.00991185 6.14786 2.48956
RightArm  -35.6524 -22.5997 78.9467
RightForeArm  28.9188 24.8413 4.67594
RightHand  1.09437 -13.2027 -9.07943
LeftShoulder1  -0.0167672 1.54686 -2.69788
LeftArm  6.70302 -30.7798 -78.963
LeftForeArm  133.918 -40.0847 -171.171
LeftHand  2.207 10.1538 24.0806
HEad  9.92612 -9.16926 -2.73619
RightUpLeg  -13.0819 -12.3961 -4.8589
RightLeg  2.45034 -4.42684 0.0964226
RightFoot  18.3018 0.284133 -1.38613
RightToes  -34.3893 -0.174848 -0.28481
138
root  3.39328 33.9771 -14.5765 1.95841 1.24567 2.52784
LeftUpLeg  -1.37321 11.4064 -2.9635
LeftLeg  12.6227 9.2628 1.44921
LeftFoot  -5.78164 -0.0473611 -0.937883
LeftToes  -9.59779 8.556e-007 1.17171e-007
Spine  0.977831 -0.747471 -2.21216
Spine1  2.04097 -1.26451 -4.58874
RightShoulder  -0.0102223 6.2311 2.41072
RightArm  -35.6797 -22.6764 79.0211
RightForeArm  29.0454 24.8733 4.68278
RightHand  1.09339 -13.2095 -9.04755
LeftShoulder1  -0.0172609 1.51733 -2.70051
LeftArm  5.66843 -32.0674 -79.1026
LeftForeArm  133.725 -40.7208 -170.976
LeftHand  2.19008 10.1971 23.7984
HEad  7.71144 -8.6601 -2.66777
RightUpLeg  -13.0897 -12.4707 -5.08704
RightLeg  2.37643 -4.21782 0.0973147
RightFoot  18.5259 0.282503 -1.33672
RightToes  -34.4907 -0.17544 -0.285281
139
root  3.47914 33.9701 -14.6456 1.85867 1.106 2.68737
LeftUpLeg  -1.40087 11.494 -3.27823
LeftLeg  12.6602 9.31505 1.46351
LeftFoot  -5.82184 -0.0473408 -0.950841
LeftToes  -9.27623 8.556e-007 1.17171e-007
Spine  0.97044 -0.738988 -2.24402
Spine1  2.02342 -1.25512 -4.64689
RightShoulder  -0.0105881 6.31317 2.3622
RightArm  -35.6198 -22.6827 79.0799
RightForeArm  29.1313 24.8437 4.67636
RightHand  1.08963 -13.2465 -8.98909
LeftShoulder1  -0.0176249 1.36131 -2.67062
LeftArm  4.34933 -33.2863 -78.9357
LeftForeArm  133.686 -41.2575 -170.807
LeftHand  2.13137 10.1633 23.2449
HEad  5.95693 -7.84095 -2.74447
RightUpLeg  -13.1168 -12.4623 -5.37166
RightLeg  2.313 -4.07273 0.0984767
RightFoot  18.7742 0.28252 -1.30876
RightToes  -34.5386 -0.176291 -0.285723
140
root  3.56598 33.9624 -14.7185 1.73119 1.00152 2.86909
LeftUpLeg  -1.40222 11.5792 -3.6113
LeftLeg  12.6765 9.33169 1.46881
LeftFoot  -5.84915 -0.0480267 -0.957746
LeftToes  -9.01958 8.556e-007 1.17171e-007
Spine  0.966101 -0.758756 -2.26923
Spine1  2.0138 -1.30018 -4.69377
RightShoulder  -0.0109922 6.35861 2.33227
RightArm  -35.543 -22.6315 79.1152
RightForeArm  29.2793 24.8268 4.67266
RightHand  1.08313 -13.1504 -9.00172
LeftShoulder1  -0.0178326 1.25545 -2.62813
LeftArm  3.28255 -34.3101 -78.7458
LeftForeArm  134.248 -41.942 -170.586
LeftHand  2.00666 9.76933 22.7766
HEad  4.35301 -6.71462 -2.89057
RightUpLeg  -13.1413 -12.4852 -5.67866
RightLeg  2.31299 -3.92467 0.094916
RightFoot  19.0004 0.282358 -1.27667
RightToes  -34.6377 -0.177437 -0.286139
141
root  3.65486 33.9546 -14.7993 1.61508 0.945519 3.00703
LeftUpLeg  -1.43055 11.6542 -3.90622
LeftLeg  12.6964 9.31498 1.4695
LeftFoot  -5.88035 -0.0490078 -0.961703
LeftToes  -8.66546 8.556e-007 1.17171e-007
Spine  0.973778 -0.792439 -2.28525
Spine1  2.02887 -1.37255 -4.72238
RightShoulder  -0.0114259 6.36703 2.34922
RightArm  -35.3499 -22.5632 79.1209
RightForeArm  29.295 24.8736 4.6827
RightHand  1.08237 -13.1807 -8.97356
LeftShoulder1  -0.0178571 1.09921 -2.56278
LeftArm  2.4247 -35.2518 -78.6115
LeftForeArm  134.644 -42.6385 -170.357
LeftHand  1.88844 9.35549 22.3906
HEad  2.69339 -5.2669 -2.89828
RightUpLeg  -13.1615 -12.3998 -5.97318
RightLeg  2.27375 -3.91182 0.0972759
RightFoot  19.2937 0.285203 -1.29281
RightToes  -34.8775 -0.17891 -0.286528
142
root  3.74842 33.9452 -14.8893 1.49007 0.919092 3.19471
LeftUpLeg  -1.4892 11.829 -4.24106
LeftLeg  12.7683 9.17015 1.45857
LeftFoot  -5.93979 -0.0504526 -0.956808
LeftToes  -8.30977 8.556e-007 1.17171e-007
Spine  1.00329 -0.835763 -2.30829
Spine1  2.0877 -1.46552 -4.7633
RightShoulder  -0.0119302 6.39907 2.28908
RightArm  -35.2318 -22.5367 79.2458
RightForeArm  29.232 25.0995 4.73143
RightHand  1.08975 -13.1177 -9.0823
LeftShoulder1  -0.0176716 0.937779 -2.63131
LeftArm  1.53066 -35.9999 -78.3192
LeftForeArm  135.226 -43.0843 -170.206
LeftHand  1.76888 8.91461 22.0173
HEad  0.92492 -3.90075 -2.78582
RightUpLeg  -13.212 -12.4267 -6.31297
RightLeg  2.29072 -3.82278 0.0939453
RightFoot  19.5594 0.286018 -1.28166
RightToes  -35.2733 -0.181868 -0.286895
143
root  3.84314 33.9327 -14.9838 1.39482 0.866219 3.36085
LeftUpLeg  -1.5726 11.9123 -4.57122
LeftLeg  12.8215 9.10629 1.45712
LeftFoot  -6.01289 -0.0508892 -0.962658
LeftToes  -7.95979 8.556e-007 1.17171e-007
Spine  1.04201 -0.874161 -2.33103
Spine1  2.16458 -1.54996 -4.80193
RightShoulder  -0.0124593 6.3894 2.24104
RightArm  -35.065 -22.5039 79.3822
RightForeArm  29.2015 25.3689 4.78974
RightHand  1.08082 -13.0854 -9.02844
LeftShoulder1  -0.0172494 0.872894 -2.65929
LeftArm  0.685021 -36.4826 -78.0361
LeftForeArm  136.057 -43.383 -170.102
LeftHand  1.57928 8.21177 21.3498
HEad  -1.22951 -2.15332 -2.67362
RightUpLeg  -13.3043 -12.479 -6.61251
RightLeg  2.30224 -3.68373 0.0898092
RightFoot  19.8104 0.285078 -1.25205
RightToes  -35.2894 -0.18349 -0.286997
